<svg width="83" height="100" viewBox="0 0 83 100" fill="none" xmlns="http://www.w3.org/2000/svg">
<path d="M80.8727 96.6387H75.9246V90.0413H67.6779V73.1817C67.6779 68.7284 65.4645 64.5919 61.7584 62.1211L44.2621 50.457L61.7584 38.7928C65.4645 36.3221 67.6779 32.1855 67.6779 27.7323V10.8726H75.9246V4.27526H80.8727C81.7831 4.27526 82.522 3.538 82.522 2.62591C82.522 1.71382 81.7831 0.976562 80.8727 0.976562H75.9246H74.2753H8.30142H6.65207H1.70403C0.793595 0.976562 0.0546875 1.71382 0.0546875 2.62591C0.0546875 3.538 0.793595 4.27526 1.70403 4.27526H6.65207V10.8726H14.8988V27.7323C14.8988 32.1855 17.1122 36.3221 20.8183 38.7928L38.3146 50.457L20.8183 62.1211C17.1122 64.5919 14.8988 68.7284 14.8988 73.1817V90.0413H6.65207V96.6387H1.70403C0.793595 96.6387 0.0546875 97.3759 0.0546875 98.288C0.0546875 99.2001 0.793595 99.9374 1.70403 99.9374H6.65207H8.30142H74.2753H75.9246H80.8727C81.7831 99.9374 82.522 99.2001 82.522 98.288C82.522 97.3759 81.7831 96.6387 80.8727 96.6387ZM9.95077 7.57395V4.27526H72.6259V7.57395H67.6779H14.8988H9.95077ZM22.6474 36.0483C19.8617 34.1895 18.1975 31.0804 18.1975 27.7323V10.8726H64.3792V27.7323C64.3792 31.0804 62.715 34.1895 59.9293 36.0483L41.2883 48.4744L22.6474 36.0483ZM18.1975 73.1817C18.1975 69.8335 19.8617 66.7245 22.6474 64.8656L41.2883 52.4395L59.9293 64.8656C62.715 66.7245 64.3792 69.8335 64.3792 73.1817V90.0413H18.1975V73.1817ZM9.95077 93.34H14.8988H67.6779H72.6259V96.6387H9.95077V93.34Z" fill="black"/>
<path d="M26.3072 30.5591C25.3605 29.9274 24.7948 28.8702 24.7948 27.7322V24.0673C24.7948 23.1552 24.0559 22.418 23.1454 22.418C22.235 22.418 21.4961 23.1552 21.4961 24.0673V27.7322C21.4961 29.9769 22.6111 32.06 24.4781 33.3037L32.1278 38.4034C32.4082 38.5898 32.7265 38.6805 33.0415 38.6805C33.5743 38.6805 34.0971 38.4232 34.4154 37.9466C34.9201 37.1879 34.7156 36.1653 33.9586 35.6589L26.3072 30.5591Z" fill="black"/>
<path d="M58.0985 69.0272L50.4488 63.9274C49.6901 63.4211 48.6675 63.6256 48.1612 64.3843C47.6565 65.143 47.861 66.1656 48.618 66.672L56.2677 71.7717C57.2161 72.4034 57.7818 73.459 57.7818 74.5987V78.2636C57.7818 79.1757 58.5207 79.9129 59.4311 79.9129C60.3416 79.9129 61.0805 79.1757 61.0805 78.2636V74.5987C61.0805 72.3523 59.9655 70.2708 58.0985 69.0272Z" fill="black"/>
</svg>
