<svg width="98" height="98" viewBox="0 0 98 98" fill="none" xmlns="http://www.w3.org/2000/svg">
<path d="M94.1719 0H3.82812C1.71368 0 0 1.71368 0 3.82812V94.1719C0 96.2863 1.71368 98 3.82812 98H94.1719C96.2863 98 98 96.2863 98 94.1719V3.82812C98 1.71368 96.2863 0 94.1719 0ZM90.3438 90.3438H7.65625V7.65625H90.3438V90.3438ZM15.6684 26.2585C14.173 24.7639 14.173 22.34 15.6684 20.8446C17.163 19.35 19.587 19.35 21.0816 20.8446L23.5602 23.3232L31.7465 15.1375C33.2411 13.6422 35.6651 13.6422 37.1597 15.1375C38.6551 16.6329 38.6551 19.0561 37.1597 20.5515L26.2675 31.4437C24.7722 32.9391 22.3482 32.9383 20.8536 31.4437L15.6684 26.2585ZM45.1719 23.291C45.1719 21.1766 46.8856 19.4629 49 19.4629H79.625C81.7394 19.4629 83.4531 21.1766 83.4531 23.291C83.4531 25.4047 81.7394 27.1191 79.625 27.1191H49C46.8856 27.1191 45.1719 25.4047 45.1719 23.291ZM15.6684 77.6773C14.173 76.1819 14.173 73.7579 15.6684 72.2633C17.163 70.7687 19.587 70.768 21.0816 72.2633L23.5602 74.7419L31.7465 66.5563C33.2411 65.0609 35.6651 65.0609 37.1597 66.5563C38.6551 68.0509 38.6551 70.4749 37.1597 71.9702L26.2675 82.8625C24.7722 84.3578 22.3482 84.3571 20.8536 82.8625L15.6684 77.6773ZM45.1719 74.709C45.1719 72.5953 46.8856 70.8809 49 70.8809H79.625C81.7394 70.8809 83.4531 72.5953 83.4531 74.709C83.4531 76.8234 81.7394 78.5371 79.625 78.5371H49C46.8856 78.5371 45.1719 76.8234 45.1719 74.709ZM15.6684 51.9683C14.173 50.4729 14.173 48.049 15.6684 46.5543C17.163 45.059 19.587 45.059 21.0816 46.5543L23.5602 49.0329L31.7465 40.8465C33.2411 39.3519 35.6651 39.3519 37.1597 40.8465C38.6551 42.3419 38.6551 44.7659 37.1597 46.2605L26.2675 57.1535C24.7722 58.6481 22.3482 58.6481 20.8536 57.1535L15.6684 51.9683ZM45.1719 49C45.1719 46.8856 46.8856 45.1719 49 45.1719H79.625C81.7394 45.1719 83.4531 46.8856 83.4531 49C83.4531 51.1144 81.7394 52.8281 79.625 52.8281H49C46.8856 52.8281 45.1719 51.1144 45.1719 49Z" fill="black"/>
</svg>
