<svg width="116" height="116" viewBox="0 0 116 116" fill="none" xmlns="http://www.w3.org/2000/svg">
<path d="M112.602 7.25017H102.18V3.39861C102.18 1.52176 100.658 3.3986 98.7812 3.3986C96.9044 3.3986 95.3828 1.52176 95.3828 3.39861V7.25017H81.7891V3.39861C81.7891 1.52176 80.2675 3.39861 78.3906 3.39861C76.5138 3.39861 74.9922 1.52176 74.9922 3.39861V7.25017H61.3984V3.39861C61.3984 1.52176 59.8768 3.39861 58 3.39861C56.1232 3.39861 54.6016 1.52176 54.6016 3.39861V7.25017H41.0078V3.39861C41.0078 1.52176 39.4862 3.39861 37.6094 3.39861C35.7325 3.39861 34.2109 1.52176 34.2109 3.39861V7.25017H20.6172V3.39861C20.6172 1.52176 19.0956 3.39861 17.2188 3.39861C15.3419 3.39861 13.8203 1.52176 13.8203 3.39861V7.25017H3.39844L0 10.6486V112.602L3.39844 116H112.602L116 112.602V10.6486L112.602 7.25017ZM13.8203 14.047V17.4455C13.8203 19.3223 15.3419 17.4455 17.2188 17.4455C19.0956 17.4455 20.6172 19.3223 20.6172 17.4455V14.047H34.2109V17.4455C34.2109 19.3223 35.7325 17.4455 37.6094 17.4455C39.4862 17.4455 41.0078 19.3223 41.0078 17.4455V14.047H54.6016V17.4455C54.6016 19.3223 56.1232 17.4455 58 17.4455C59.8768 17.4455 61.3984 19.3223 61.3984 17.4455V14.047H74.9922V17.4455C74.9922 19.3223 76.5138 17.4455 78.3906 17.4455C80.2675 17.4455 81.7891 19.3223 81.7891 17.4455V14.047H95.3828V17.4455C95.3828 19.3223 96.9044 17.4455 98.7812 17.4455C100.658 17.4455 102.18 19.3223 102.18 17.4455V14.047H109.203V27.6408H6.79688V14.047H13.8203ZM6.79688 109.203V34.4377H109.203V109.203H6.79688Z" fill="black"/>
<path d="M39.4266 48.6885H19.876V69.0791H39.4266V48.6885ZM32.9071 62.2822H26.1102V55.4854H32.9071V62.2822Z" fill="black"/>
<path d="M67.1238 48.877H47.5732V69.2676H67.1238V48.877ZM60.6044 62.4707H53.8075V55.6738H60.6044V62.4707Z" fill="black"/>
<path d="M95.1463 48.877H75.5957V69.2676H95.1463V48.877ZM88.6268 62.4707H81.8299V55.6738H88.6268V62.4707Z" fill="black"/>
<path d="M67.1238 76.8994H47.5732V97.29H67.1238V76.8994ZM60.6044 90.4932H53.8075V83.6963H60.6044V90.4932Z" fill="black"/>
<path d="M95.1463 76.8994H75.5957V97.29H95.1463V76.8994ZM88.6268 90.4932H81.8299V83.6963H88.6268V90.4932Z" fill="black"/>
<path d="M39.7532 78.2C38.2969 77.016 36.1565 77.2371 34.9725 78.693L28.0628 87.192L26.1706 85.6403C24.7192 84.4497 22.578 84.662 21.3878 86.1131C20.1977 87.5645 20.4095 89.7057 21.8609 90.8959L26.3921 94.6115C27.8507 95.8078 29.9995 95.5846 31.1839 94.1276L40.2464 82.9807C41.4305 81.5243 41.2096 79.384 39.7532 78.2Z" fill="black"/>
</svg>
