<svg width="49" height="49" viewBox="0 0 49 49" fill="none" xmlns="http://www.w3.org/2000/svg">
<path d="M20.4202 2.95782H28.6096V4.3358H31.567V2.76492C31.5674 1.2404 30.3277 0 28.804 0H20.2258C18.7021 0 17.4624 1.2404 17.4624 2.76492V4.3358H20.4202V2.95782Z" fill="white"/>
<path d="M38.3971 16.0547H10.6327C9.87198 16.0547 9.27309 16.7037 9.3344 17.4622L11.6556 46.1642C11.7849 47.7664 13.1214 49.0005 14.727 49.0005H34.3024C35.9081 49.0005 37.2446 47.7664 37.3739 46.1638L39.6951 17.4622C39.7568 16.7037 39.1579 16.0547 38.3971 16.0547ZM17.3555 45.9391C17.3245 45.941 17.2935 45.9421 17.2628 45.9421C16.4875 45.9421 15.8366 45.3383 15.7884 44.554L14.3338 20.9912C14.2837 20.1759 14.9039 19.4742 15.7188 19.4241C16.5312 19.3748 17.2359 19.9935 17.286 20.8092L18.7402 44.372C18.7907 45.1873 18.1705 45.8886 17.3555 45.9391ZM26.0103 44.4632C26.0103 45.2797 25.3482 45.9417 24.5314 45.9417C23.7145 45.9417 23.0525 45.2797 23.0525 44.4632V20.9C23.0525 20.0832 23.7145 19.4211 24.5314 19.4211C25.3478 19.4211 26.0103 20.0832 26.0103 20.9V44.4632ZM34.6961 20.9871L33.3073 44.5499C33.2613 45.3357 32.6093 45.9417 31.8325 45.9417C31.8033 45.9417 31.7738 45.941 31.7443 45.9395C30.9289 45.8913 30.3068 45.1914 30.3551 44.3761L31.7435 20.8129C31.7914 19.9976 32.4889 19.3755 33.3065 19.4237C34.1219 19.4716 34.7439 20.1718 34.6961 20.9871Z" fill="white"/>
<path d="M43.5112 11.4907L42.54 8.57921C42.2839 7.81171 41.5654 7.29395 40.756 7.29395H8.27341C7.46442 7.29395 6.74552 7.81171 6.48982 8.57921L5.51858 11.4907C5.33129 12.0522 5.57503 12.6249 6.02999 12.9105C6.21542 13.0268 6.43486 13.0967 6.67599 13.0967H42.3538C42.5949 13.0967 42.8148 13.0268 42.9998 12.9102C43.4548 12.6245 43.6985 12.0518 43.5112 11.4907Z" fill="white"/>
</svg>
