<svg width="122" height="122" viewBox="0 0 122 122" fill="none" xmlns="http://www.w3.org/2000/svg">
<path d="M0 122H92.4606V0H0V122ZM7.20472 7.20472H85.2559V114.795H7.20472V7.20472Z" fill="black"/>
<path d="M111.553 5.52441C105.793 5.52441 101.106 10.2108 101.106 15.9713V92.6771L111.553 118.703L122 92.6771V15.9713C122 10.2108 117.314 5.52441 111.553 5.52441ZM114.795 91.2851L111.553 99.3621L108.311 91.2851V25.8617H114.795V91.2851ZM108.311 18.6569V15.9713C108.311 14.1835 109.766 12.7291 111.553 12.7291C113.341 12.7291 114.795 14.1835 114.795 15.9713V18.6569H108.311Z" fill="black"/>
<path d="M17.291 19.4531H46.23V26.6579H17.291V19.4531Z" fill="black"/>
<path d="M17.9893 37.7051H74.4724V44.9098H17.9893V37.7051Z" fill="black"/>
<path d="M17.9893 52.5947H74.4724V59.7994H17.9893V52.5947Z" fill="black"/>
<path d="M17.9893 67.4844H74.4724V74.6891H17.9893V67.4844Z" fill="black"/>
<path d="M17.9893 82.374H74.4724V89.5788H17.9893V82.374Z" fill="black"/>
<path d="M17.9893 97.2637H35.0635V104.468H17.9893V97.2637Z" fill="black"/>
</svg>
