<svg width="79" height="79" viewBox="0 0 79 79" fill="none" xmlns="http://www.w3.org/2000/svg">
<g clip-path="url(#clip0)">
<path d="M46.5536 47.9643C46.5536 47.1852 47.1852 46.5536 47.9643 46.5536L79 46.5536L79 32.4464L47.9643 32.4464C47.1852 32.4464 46.5536 31.8148 46.5536 31.0357L46.5536 -1.41828e-06L32.4464 -2.03492e-06L32.4464 31.0357C32.4464 31.8148 31.8148 32.4464 31.0357 32.4464L-1.41828e-06 32.4464L-2.03492e-06 46.5536L31.0357 46.5536C31.8148 46.5536 32.4464 47.1852 32.4464 47.9643L32.4464 79L46.5536 79L46.5536 47.9643Z" fill="white"/>
</g>
<defs>
<clipPath id="clip0">
<rect width="79" height="79" fill="white" transform="translate(79) rotate(90)"/>
</clipPath>
</defs>
</svg>
