<svg width="73" height="73" viewBox="0 0 73 73" fill="none" xmlns="http://www.w3.org/2000/svg">
<path d="M52.1429 45.8857H48.8057L47.5544 44.6343C51.7259 40.0457 54.2287 33.7886 54.2287 27.1143C54.2286 12.0971 42.1314 0 27.1143 0C12.0971 0 0 12.0971 0 27.1143C0 42.1314 12.0971 54.2286 27.1143 54.2286C33.7886 54.2286 40.0457 51.7257 44.6343 47.5543L45.8857 48.8056V52.1427L66.7429 73L73 66.7429L52.1429 45.8857ZM27.1143 45.8857C16.6857 45.8857 8.34286 37.5429 8.34286 27.1143C8.34286 16.6857 16.6857 8.34286 27.1143 8.34286C37.5429 8.34286 45.8857 16.6857 45.8857 27.1143C45.8857 37.5429 37.5429 45.8857 27.1143 45.8857Z" fill="white"/>
</svg>
