<svg width="75" height="75" viewBox="0 0 75 75" fill="none" xmlns="http://www.w3.org/2000/svg">
<path d="M70.3077 0H4.69233C2.10265 0 0 2.10265 0 4.68897V70.311C0 72.9007 2.10265 74.9966 4.69233 74.9966H70.3077C72.8973 74.9966 75 72.9007 75 70.311V4.68897C75 2.10265 72.8973 0 70.3077 0ZM67.634 63.8654C67.634 65.9445 65.9479 67.6307 63.8721 67.6307H11.1447C9.04877 67.6307 7.36598 65.9445 7.36598 63.8654V11.138C7.36598 9.05549 9.05213 7.36598 11.1447 7.36598H63.8721C65.9479 7.36598 67.634 9.05213 67.634 11.138V63.8654Z" fill="white"/>
<path d="M59.7436 24.8621L54.7859 19.9111L29.3224 45.3747L19.6858 35.7347L14.7349 40.689L29.2351 55.1926L29.3224 55.0986L29.4164 55.1926L59.7436 24.8621Z" fill="white"/>
</svg>
